<mxfile>
  <diagram id="Q2vYCBkX9x7k5LHJcVAY" name="Page-1">
    <mxGraphModel dx="868" dy="707" grid="1" gridSize="10" guides="1" tooltips="1" connect="1" arrows="1" fold="1" page="1" pageScale="1" pageWidth="1169" pageHeight="827" background="#ffffff" math="0" shadow="0">
      <root>
        <mxCell id="0"/>
        <mxCell id="1" parent="0"/>
        <mxCell id="plSPK21eBbIPx6ZMLl8d-2" value="" style="rounded=0;whiteSpace=wrap;html=1;" parent="1" vertex="1">
          <mxGeometry x="50" y="50" width="120" height="40" as="geometry"/>
        </mxCell>
        <mxCell id="uE7oUjk5ngqdHp5F5yfW-2" value="" style="rounded=0;whiteSpace=wrap;html=1;" parent="1" vertex="1">
          <mxGeometry x="275" y="50" width="120" height="40" as="geometry"/>
        </mxCell>
        <mxCell id="gAeqPz_Qd9rTSnlq3hzc-1" value="" edge="1" parent="1" source="plSPK21eBbIPx6ZMLl8d-2" target="uE7oUjk5ngqdHp5F5yfW-2" as="geometry">
          <mxGeometry relative="1" as="geometry"/>
        </mxCell>
        <mxCell id="n8KvYzCJ9TN3HycrCkGo-1" value="sp_data_entity" style="text;align=center;verticalAlign=middle;resizable=0;points=[];" parent="1" vertex="1">
          <mxGeometry x="65" y="62.5" width="90" height="15" as="geometry"/>
        </mxCell>
        <mxCell id="V7JZ6_LnSUVjRf_R4RVu-1" value="sp_data_function" style="text;align=center;verticalAlign=middle;resizable=0;points=[];" parent="1" vertex="1">
          <mxGeometry x="290" y="62.5" width="100" height="15" as="geometry"/>
        </mxCell>
        <mxCell id="YhGgX9xTqTqEhvtKrBv_" value="&lt;&lt;多个&gt;&gt;" style="text;align=center;verticalAlign=middle;resizable=0;points=[];" parent="1" vertex="1">
          <mxGeometry x="155" y="17.5" width="60" height="15" as="geometry"/>
        </mxCell>
      </root>
    </mxGraphModel>
  </diagram>
</mxfile>